<svg id="logo_main" xmlns="http://www.w3.org/2000/svg" width="290" height="72" viewBox="0 0 290 72">
  <rect id="clear_space" width="290" height="72" fill="#f3f2f2" opacity="0"/>
  <g id="farmacias_aumada" transform="translate(3.904 -49.838)">
    <path id="Caminho_58" data-name="Caminho 58" d="M80.89,72.235l-.018,0a17.515,17.515,0,0,0-2.285-.031s-.462.258-.162.317.8.143.8.143.582.218.069.388a1.946,1.946,0,0,1-.631.017l-.956.085-1.359-.233a12.98,12.98,0,0,0-2.669.271,9.848,9.848,0,0,1-4.284.177l-.737-.009a23.183,23.183,0,0,1-4.257.225l-.071-.645a7.914,7.914,0,0,0-.309-1.013,1.8,1.8,0,0,0-.482-.636,1.726,1.726,0,0,0-.687-.368,36.244,36.244,0,0,1,5.669.2,22.764,22.764,0,0,1,6.9.426l1.41.024,1.847-.284,1.274.262,1.224.326c.178.151.019.363-.276.363M76.845,87.079s-1.053-1.35-1.6-1.447c-.361-.16-.524-.169-.326.12s.49.653.49.653.281.561-.21.332a1.958,1.958,0,0,1-.473-.423l-.761-.592-.846-1.109a13.282,13.282,0,0,0-2.145-1.634A10.124,10.124,0,0,1,67.7,80.157l-.537-.518A13.008,13.008,0,0,1,64.6,77.485l-.2-3.73.551.509a22.882,22.882,0,0,1,3.6,3.632,23.163,23.163,0,0,1,4.794,5.065l1.027.988,1.549,1.059.57.807a4.069,4.069,0,0,1,.612,1.027c.025.237,0,.387-.257.237M64.59,91.634a3.79,3.79,0,0,1-.928,1.89l-.011.009c-.143.186-.536.045-.317-.238l.015-.006a3.688,3.688,0,0,0,.358-2.253s-.281-.437-.316-.15-.1.816-.1.816-.191.6-.381.084a2.16,2.16,0,0,1-.043-.645,8.054,8.054,0,0,1-.126-.961c0-.27.169-1.4.169-1.4a13.587,13.587,0,0,0-.379-2.7,10.378,10.378,0,0,1-.358-4.357l-.023-.751c-.286-.668-.167-3.041-.263-4.889l2.192-1.954.1,1.451c.085,2.39.251,3.431.167,5.156a22.941,22.941,0,0,1-.126,7.036l.042,1.437.358,1.867ZM4.1,57.838v55.149H54.5c-.05-.038-.307-.262.025-.9a12.443,12.443,0,0,1,.732-1.4,1.88,1.88,0,0,0,.01-.877,1.006,1.006,0,0,1-.014-.571,3.009,3.009,0,0,0,.025-.955,18.512,18.512,0,0,1-.989-7.21,5.935,5.935,0,0,0-.019-1.088c-.085-.7-.182-1.168-.214-1.741-.545-1.655-1.054-3.8-1.054-3.8l-.209-1.48-.146-2.381a26.344,26.344,0,0,1,.209-4.269c.288-1.475.823-4.507.823-4.507L53.622,76.1s-.213-.729-.392.018c-.02.335-.046,3.967-.447,4.911l-.022.748a10.4,10.4,0,0,1-.355,4.355,13.48,13.48,0,0,0-.382,2.7s.174,1.163.169,1.4-.125.966-.125.966a2.089,2.089,0,0,1-.045.645c-.188.515-.377-.088-.377-.088s-.074-.4-.1-.811-.318.145-.318.145a3.7,3.7,0,0,0,.359,2.254c.219.279-.176.423-.317.238a3.72,3.72,0,0,1-.925-1.891l-.023-.555.359-1.868.042-1.438a23.908,23.908,0,0,1-.127-7.037,30.658,30.658,0,0,1,.085-5.125l.064-.448c.038-.508.083-.9.083-.9-.14-3,1.783-3.216,1.783-3.216a7.288,7.288,0,0,1,2.192-.972,2.859,2.859,0,0,0,1.082-.723,6.217,6.217,0,0,0-.045-2.1,4.211,4.211,0,0,1-1.093-3.216,2.284,2.284,0,0,1,2.064-2.059,3.518,3.518,0,0,1,2.307.263,2.741,2.741,0,0,1,.836.774,2.322,2.322,0,0,1,.323.731,6.7,6.7,0,0,1,0,1.209l.216.472.271.5.081.223-.137.129-.3.057-.034.373c.02.028.131.318-.08.318l.08.106-.177.3-.013.619-.349.283-.761.036a1.975,1.975,0,0,0,.078.934,2.615,2.615,0,0,0,1.017.725,7.232,7.232,0,0,1,2.19.97s1.641.141,1.713,2.59l-2.313,2.106c-.193.125-.225.206-.225.206l-.3,5.874s.62,3.287.873,4.507a24.215,24.215,0,0,1,.209,4.266l-.145,2.384-.207,1.475s-.508,2.147-1.058,3.8a11.368,11.368,0,0,1-.19,1.717,7.693,7.693,0,0,0-.038,1.116,25.931,25.931,0,0,1-1,7.2,4.305,4.305,0,0,0-.027,2.081c.083.09.6.77.885.891a15.265,15.265,0,0,1,1.62.888,7.646,7.646,0,0,0,.727.322c.442.034.261.463.234.521H85.58V57.838ZM57.727,97.613v-.667c-.168-.813-.182-7.1-.2-7.33l-.1-.182-.031,0-.115.178c-.023.229.005,5.7-.224,7.33a3.843,3.843,0,0,1-.043.6,10.2,10.2,0,0,0,0,1.119c0,.289.013.972.013.972l-.013.746a17.217,17.217,0,0,1,.313,2.715c0,1.171-.323,5.731-.216,6.017a2.023,2.023,0,0,1-.029.734c-.033.284.136,1.437.311,1.345s.281-1.246.323-1.563a4.349,4.349,0,0,0,.018-1.119c-.134-.969-.224-4.26-.224-5.429a19.952,19.952,0,0,1,.293-2.722l-.045-.695s.045-.731.045-1.018-.074-.8-.074-1.035" transform="translate(0 0)" fill="#e4002b"/>
    <path id="Caminho_59" data-name="Caminho 59" d="M258.569,109.287V87.717h-6.94v2.412a8.511,8.511,0,0,0-6.212-3.178c-6.4,0-10.491,5.6-10.491,11.6,0,6.145,4.054,11.47,10.583,11.47a7.633,7.633,0,0,0,6.03-2.815h.09v2.078ZM252.3,98.3a4.835,4.835,0,1,1-4.835-4.92A4.881,4.881,0,0,1,252.3,98.3m6.147-17.519A3.713,3.713,0,1,0,254.74,84.5a3.71,3.71,0,0,0,3.711-3.714m-4.892,2.948h.289V81.247h.3l1.693,2.483h.078a3.117,3.117,0,0,1-2.358,0m.519-3.088h-.23V78.524h.19c.713,0,1.567.132,1.567,1.049,0,.934-.794,1.07-1.526,1.07m-.947,2.867a3.151,3.151,0,0,1,0-5.456Zm4.787-2.727A3.173,3.173,0,0,1,256.5,83.43l-1.6-2.25a1.583,1.583,0,0,0,1.378-1.641,1.637,1.637,0,0,0-.755-1.4A2.975,2.975,0,0,0,254,77.868h-.536a3.214,3.214,0,0,1,1.274-.266,3.181,3.181,0,0,1,3.178,3.181m-31.846,28.5H233.1V75.7h-7.032V90.078h-.093a8.028,8.028,0,0,0-6.075-3.069c-6.393,0-10.839,5.512-10.839,11.513,0,6.145,4.4,11.623,10.931,11.623a7.489,7.489,0,0,0,5.982-2.99h.093Zm.677-10.49a4.833,4.833,0,1,1-4.831-4.925,4.878,4.878,0,0,1,4.831,4.925m-26.564,10.48h6.944V87.723h-6.944v2.388a8.378,8.378,0,0,0-6.21-3.069c-6.4,0-10.491,5.492-10.491,11.5,0,6.143,4.051,11.467,10.581,11.467a7.634,7.634,0,0,0,6.026-2.814h.093ZM201.5,98.4a4.833,4.833,0,1,1-4.833-4.929A4.877,4.877,0,0,1,201.5,98.4m2.2-20.3c0-.285.307-.358.542-.358A3.126,3.126,0,0,1,206,78.4l.925-2.206a6.629,6.629,0,0,0-3.033-.675c-1.677,0-3.648.8-3.648,2.789,0,1.5,1.175,2.024,2.442,2.2.309.045.767.061.767.5,0,.3-.309.434-.561.434a4.177,4.177,0,0,1-1.942-.736l-.239-.151-.967,2.4a9.062,9.062,0,0,0,3.574.885c1.767,0,3.784-.855,3.784-2.923,0-1.6-1.1-2.082-2.459-2.311-.531-.085-.939-.121-.939-.508m-10.445,5.563h3.723V75.7h-3.723l.117.947h-.087a2.646,2.646,0,0,0-2.283-1.126c-2.207,0-3.4,2.19-3.4,4.194,0,1.937,1.177,4.127,3.3,4.127a3,3,0,0,0,2.385-1.232h.087Zm.117-4.047c0,.612-.3,1.2-1.014,1.2-.692,0-.984-.54-.984-1.17a1.019,1.019,0,0,1,.984-1.1,1,1,0,0,1,1.014,1.069m-8.91-6.373a2.1,2.1,0,0,0-4.18,0,2.1,2.1,0,0,0,4.18,0m-3.989,10.42h3.8V75.7h-3.8Zm.571,11.653c0-4.942-2.041-8.445-7.709-8.445a7.667,7.667,0,0,0-6.483,3.556,7.028,7.028,0,0,0-6.392-3.556,6.661,6.661,0,0,0-5.442,2.769h-.09V87.684l-7.019-.024v21.613h7.019V98.313c0-2.4-.181-6.412,3.354-6.412,3.309,0,3.039,3.825,3.039,6.045v11.325h6.981V98.313c0-2.355-.677-6.412,2.764-6.412,3.13,0,2.995,3.411,2.995,5.629v11.742h6.983Zm-6.733-15.642a1.13,1.13,0,0,1,1.19-1.187,2.19,2.19,0,0,1,1.4.662V75.922a7.632,7.632,0,0,0-2.383-.4,4.025,4.025,0,0,0-4.031,4.194c0,2.673,1.807,4.127,4.341,4.127a6.135,6.135,0,0,0,1.913-.377L176.9,80.2a2.511,2.511,0,0,1-1.469.613,1.129,1.129,0,0,1-1.117-1.139M163.7,83.659h3.723V75.7H163.7l.117.947h-.09a2.634,2.634,0,0,0-2.278-1.126c-2.208,0-3.4,2.19-3.4,4.194,0,1.937,1.176,4.127,3.294,4.127a2.993,2.993,0,0,0,2.385-1.232h.09Zm.117-4.047c0,.612-.3,1.2-1.016,1.2-.692,0-.985-.54-.985-1.17a1.021,1.021,0,0,1,.985-1.1,1,1,0,0,1,1.016,1.069m-12.608,4.047h3.678V78.71c0-1.722-.823-3.192-2.692-3.192a2.353,2.353,0,0,0-2.37,1.691h-.087a2.221,2.221,0,0,0-2.239-1.691,2.362,2.362,0,0,0-2.265,1.591h-.117l.117-1.411H141.64v7.962h3.678V79.711c0-.459,0-1.061.547-1.061s.559.6.559,1.061v3.948H150.1V79.711c0-.459,0-1.061.541-1.061.56,0,.56.6.56,1.061ZM137.658,79.01a2.062,2.062,0,0,1,1.162.434V75.518a2.546,2.546,0,0,0-2.647,1.242h-.088l.088-1.063h-3.8v7.962h3.8V80.6a1.392,1.392,0,0,1,1.485-1.588m-2.768,25.359c-3.216,0-3.625-2.4-3.625-4.985l0-11.7h-7.041v12.764c0,6.607,3.993,9.607,10.612,9.607s10.718-3,10.718-9.607V87.684h-7.032v11.7c0,2.59-.407,4.985-3.63,4.985M125.3,83.659h3.719V75.7H125.3l.113.947h-.084a2.65,2.65,0,0,0-2.285-1.126c-2.207,0-3.4,2.19-3.4,4.194,0,1.937,1.177,4.127,3.3,4.127a3,3,0,0,0,2.383-1.232h.084Zm.113-4.047c0,.612-.3,1.2-1.017,1.2-.687,0-.984-.54-.984-1.17a1.023,1.023,0,0,1,.984-1.1,1,1,0,0,1,1.017,1.069m-8.81-5.113a1.423,1.423,0,0,1,.515.132V71.561a10.388,10.388,0,0,0-1.665-.181c-2.351,0-3.383,1.292-3.383,3.612v.843l-1.03-.137v3.1l1.03-.1v4.96h3.8V78.7l1.224.1V75.7l-1.282.165v-.3c0-.524.145-1.064.793-1.064m-3.1,12.491a7.179,7.179,0,0,0-5.821,2.9h-.09V75.7h-7.032v33.585h7.032V98.755c0-2.724.047-5.625,3.809-5.625,3.58,0,3.444,2.115,3.444,4.841v11.311h7.036V96.121c0-5.265-2.389-9.131-8.377-9.131m-22.8,22.292h6.943l-.05-21.6H90.711v2.44a8.367,8.367,0,0,0-6.132-3.206c-6.394,0-10.573,5.631-10.573,11.633,0,6.142,4.052,11.469,10.581,11.469a7.623,7.623,0,0,0,6.028-2.817h.093ZM91.383,98.7a4.834,4.834,0,1,1-4.835-4.918A4.881,4.881,0,0,1,91.383,98.7" transform="translate(19.066 3.693)" fill="#112c7f"/>
  </g>
</svg>
